<svg preserveAspectRatio="xMidYMid meet" viewBox="77.24425887265134 123.192 347.5991649269311 271.44" xmlns="http://www.w3.org/2000/svg" version="1.0" style="max-height: 500px" width="347.5991649269311" height="271.44">
 <g fill-opacity="0">
  <path d="M0 261 l0 -261 250 0 250 0 0 261 0 261 -250 0 -250 0 0 -261z m221.15 128.25 c2.35 -0.40 5.55 -1.20 7.05 -1.80 3.60 -1.30 7.45 -4.75 7.45 -6.60 0 -1.70 -1.35 -3.70 -3.20 -4.75 -2.15 -1.25 -2 -3.40 0.30 -5.25 0.95 -0.75 2.10 -2.05 2.50 -2.85 0.70 -1.35 0.70 -1.65 0 -2.95 -0.40 -0.85 -1.55 -2.10 -2.50 -2.85 -1.40 -1.05 -1.75 -1.65 -1.75 -3 0 -1.05 0.25 -1.70 0.65 -1.70 0.85 0 3.65 -2.95 4.05 -4.25 0.40 -1.35 -1.30 -4.10 -3.20 -5.15 -2.20 -1.25 -2.05 -3.40 0.25 -5.25 0.95 -0.75 2.10 -2.05 2.50 -2.85 0.70 -1.35 0.70 -1.65 0 -3 -1.75 -3.40 -7.35 -6.10 -15.20 -7.25 -17.55 -2.65 -35.55 2.05 -35.55 9.30 0 0.55 1 1.95 2.25 3.15 2.90 2.85 2.95 4.15 0.25 6.60 -1.10 1 -2.15 2.35 -2.30 2.95 -0.35 1.50 0.90 3.90 2.80 5.25 2.25 1.60 2.05 3.35 -0.75 6.10 -1.55 1.55 -2.25 2.70 -2.25 3.60 0 0.95 0.70 2 2.25 3.50 1.45 1.45 2.25 2.65 2.25 3.45 0 0.80 -0.80 2 -2.25 3.45 -1.30 1.35 -2.25 2.75 -2.25 3.40 0 3.55 5.95 7.20 14.25 8.75 4.90 0.90 17.15 0.90 22.40 0z m62.35 -4.75 c5.15 -2.65 7.60 -5.55 9.05 -10.85 0.80 -2.80 0.95 -5.15 0.95 -14 l0 -10.65 -6.85 0 c-7.60 0 -8.80 0.35 -10.25 2.75 -0.85 1.50 -0.85 1.60 0.10 3.10 1.05 1.75 3.35 2.65 6.90 2.65 l2.15 0 -0.20 7.65 c-0.25 8.05 -0.60 9.60 -2.80 11.55 -1.60 1.45 -8.95 1.50 -10.55 0.05 -2.45 -2.15 -2.50 -2.70 -2.50 -27 0 -21.50 0.05 -22.90 0.95 -24.65 1.25 -2.45 2.75 -3.10 7.05 -3.10 2.95 0 3.65 0.20 4.95 1.30 1.65 1.35 2.55 3.80 2.55 6.85 0 1.45 0.35 2.30 1.45 3.40 1.90 1.85 3.25 1.85 5.15 -0.10 1.45 -1.45 1.50 -1.65 1.25 -4.50 -0.50 -5.85 -4.45 -11.40 -9.75 -13.85 -7.65 -3.50 -16.20 0.20 -20.25 8.80 l-1.60 3.35 -0.15 21.10 c-0.15 23.25 -0.05 24.75 2.85 29.90 1.65 2.90 5.35 5.95 8.55 7 3.15 1.05 8.15 0.70 11 -0.75z m25.50 0.15 c1.35 -1.20 1.70 -2.15 2.70 -6.90 l1.10 -5.50 6.70 0 6.70 0 1.05 5.05 c1.50 7.25 3.30 9.60 6.20 7.90 3 -1.75 3.20 -0.05 -3.80 -34.85 -5.90 -29.45 -6.50 -32.10 -7.75 -33.40 -1.65 -1.80 -2.90 -1.85 -4.75 -0.05 -1.40 1.30 -1.65 2.40 -7.80 33.10 -3.50 17.45 -6.35 32 -6.35 32.35 0 0.80 2.95 3.65 3.80 3.65 0.35 0 1.35 -0.60 2.20 -1.35z m82 0 c1.35 -1.20 1.70 -2.15 2.70 -6.90 l1.10 -5.50 6.70 0 6.70 0 1.05 5.05 c1.05 5.25 2 7.25 3.80 8.25 1.30 0.70 3.05 -0.10 4.25 -1.95 0.75 -1.15 0.50 -2.85 -5.60 -33.25 -6.15 -30.50 -6.50 -32.10 -7.85 -33.45 -1.80 -1.75 -3.10 -1.80 -4.75 0 -1.20 1.30 -1.90 4.35 -7.70 33.15 -6.95 34.45 -6.85 33.60 -3.95 35.20 1.75 0.95 1.80 0.95 3.55 -0.60z m-27.90 -1.10 l1.65 -1.45 0.25 -29.70 0.25 -29.65 2.50 0.10 c1.40 0.05 3.95 0 5.70 -0.15 2.60 -0.25 3.40 -0.55 4.40 -1.60 1.70 -1.85 1.40 -4 -0.80 -5.45 -1.65 -1.15 -1.90 -1.15 -16.55 -1.15 l-14.90 0 -1.55 1.45 c-1.90 1.80 -1.95 3.30 -0.20 5.15 1.30 1.35 1.50 1.40 6.70 1.40 3.80 0 5.50 0.20 5.90 0.65 0.35 0.50 0.50 8.85 0.50 28.15 -0.05 15.10 -0.05 28.20 0 29.10 0.05 1.80 2.35 4.60 3.75 4.60 0.45 0 1.50 -0.65 2.40 -1.45z m-118.35 -63.80 c6.35 -1.70 11.05 -5.60 13.90 -11.65 1.40 -2.90 1.60 -3.90 1.60 -7.40 0 -3.60 -0.20 -4.35 -1.90 -7.80 -2.95 -6 -8.45 -10.15 -15.10 -11.35 -1.90 -0.35 -13.55 -0.55 -33.45 -0.55 -32.65 0 -34.10 0.10 -38.90 2.55 -7.10 3.65 -12.40 13.25 -10.95 19.95 1.15 5.40 5.90 12.10 9.85 13.95 0.80 0.35 2.05 1 2.75 1.35 0.75 0.40 2.20 0.90 3.25 1.15 1.10 0.25 16.35 0.45 33.95 0.50 27.30 0.05 32.50 -0.05 35 -0.70z m-104.90 -14.55 c5.75 -2.75 10.30 -9.45 10.30 -15.20 0 -3.80 -0.50 -4.85 -13.55 -27.25 -13.05 -22.45 -13.80 -23.60 -17.50 -26.50 -4.55 -3.55 -8.40 -4.95 -14.10 -4.95 -4.50 -0.05 -4.95 0.05 -8.65 1.80 -11.05 5.30 -16.65 16.60 -13.30 26.95 0.55 1.75 1.60 4.15 2.30 5.35 1.80 3.20 6 7.15 9.55 9 2.80 1.50 3.10 1.80 3.10 3.25 0 2.55 2.70 7.65 5.65 10.55 3.15 3.15 6.50 5 10.65 5.80 2.95 0.60 3 0.65 4.40 3.30 2.30 4.35 7.25 8.25 11.80 9.25 2.65 0.60 6.40 0.05 9.35 -1.35z m185.75 -3.15 c3 -1.15 6.45 -5.25 7.05 -8.50 0.60 -3.05 -2.45 -8.15 -5.90 -9.75 -0.95 -0.50 -3.45 -1.15 -5.50 -1.50 -7.20 -1.25 -10.10 -5 -9.65 -12.50 l0.25 -3.70 -3.30 -0.85 c-8.45 -2.25 -16.70 -7.40 -23.45 -14.50 -8.25 -8.75 -12.90 -19.60 -13.85 -32.50 -0.20 -2.80 -0.15 -5 0.20 -5.85 0.45 -1.25 0.75 -1.40 2.90 -1.40 1.35 0 2.70 0.20 3.05 0.45 0.40 0.20 0.85 2.25 1.15 5.10 1.85 17.85 11.25 31.40 27.10 39 7.70 3.65 10.30 4.10 25.60 4.15 l13.50 0.05 5.65 -8.45 c3.05 -4.60 5.60 -8.50 5.60 -8.60 0 -0.30 -5.75 -2.80 -19 -8.20 -2.60 -1.05 -7.40 -3.05 -10.65 -4.45 l-5.90 -2.50 -1.65 1 c-2.15 1.25 -7.10 1.75 -9.50 0.95 -2.40 -0.80 -4.75 -2.80 -5.60 -4.85 -0.40 -0.90 -0.70 -3.20 -0.70 -5.15 l0 -3.50 -8.30 -16.65 c-4.55 -9.10 -8.40 -16.65 -8.45 -16.75 -0.10 -0.10 -0.60 0.05 -1.15 0.35 -0.50 0.25 -2.75 0.95 -4.90 1.55 -4.55 1.20 -5.35 1.95 -6.20 5.60 -0.95 4 -2.80 7.05 -5.10 8.45 -1.10 0.65 -3.05 1.90 -4.30 2.70 l-2.35 1.50 -0.35 4.85 c-0.40 5.85 -1 7.10 -5.30 11.20 -2.50 2.45 -3.15 3.35 -2.85 4.05 0.20 0.50 0.50 3.05 0.65 5.70 0.25 5.25 -0.05 6.10 -3.60 11.05 l-1.70 2.40 1.20 3.35 c2.10 6 1.60 10.40 -1.85 15.75 -1.75 2.70 -1.90 2.20 2.35 7.65 10.80 13.90 27.95 25.70 44.35 30.45 11.25 3.25 25.80 4.65 30.45 2.85z m63.85 -42.85 c2.80 -0.80 6.15 -3.50 7.70 -6.15 l0.90 -1.55 -8.55 0 -8.55 0 -1.65 1.75 c-1.60 1.70 -1.80 1.75 -5.30 1.75 -3.45 0 -3.70 -0.10 -5.30 -1.70 -1.65 -1.65 -1.70 -1.85 -1.70 -5.40 0 -4.20 0.55 -5.35 3.20 -6.60 3.30 -1.55 7.85 -0.65 9.95 2 l1 1.30 9.05 -0.20 c7.45 -0.20 9.45 -0.40 11.45 -1.25 3.20 -1.25 6.15 -4.15 7.65 -7.30 1.95 -4.25 1.50 -7.85 -1.65 -12.10 l-1.85 -2.50 -0.35 1.60 c-0.40 2 -1.30 3.15 -2.40 3.15 -0.45 0 -0.15 0.40 0.85 1 1.30 0.80 1.60 1.30 1.60 2.80 0 3.15 -0.60 3.70 -4.30 3.70 -3.10 0 -3.40 -0.10 -5 -1.70 -1.65 -1.65 -1.70 -1.85 -1.70 -5.55 0 -3.80 0.05 -3.90 1.80 -5.55 1 -1 2.35 -1.70 3.10 -1.75 1.35 -0.05 1.35 -0.05 -0.15 -0.45 -2.65 -0.65 -15.95 -0.55 -16.85 0.15 -0.45 0.30 -6.90 9.75 -14.35 21 l-13.55 20.35 16.15 0 c13.20 0 16.65 -0.15 18.80 -0.80z m-145.45 -7.20 c0 -0.25 -0.60 -2.25 -1.30 -4.35 -1.65 -4.85 -1.50 -8.70 0.50 -11.55 0.70 -1 1.90 -2.80 2.70 -3.95 1.30 -1.90 1.45 -2.35 1.05 -4 -0.25 -1.05 -0.45 -3.85 -0.45 -6.20 0 -4.85 0.20 -5.25 5.15 -10 l2.85 -2.75 0 -4 c0.05 -6.70 1.15 -8.50 7.40 -11.95 3.05 -1.70 4.10 -3.30 5.40 -8 1.15 -4.25 3.35 -6.30 7.95 -7.45 5.05 -1.25 5.75 -1.70 8.10 -5.30 1.20 -1.80 2.80 -3.85 3.60 -4.60 1.85 -1.65 5.20 -2.25 9.20 -1.55 l2.85 0.45 0.30 -1.90 c0.55 -3.25 3.10 -6.85 6.10 -8.55 5.05 -2.80 12.90 -2.25 16.85 1.25 3.10 2.70 4.35 5.40 4.65 10.15 l0.25 4.25 2.35 1.50 c1.30 0.80 2.60 1.50 2.95 1.50 0.30 0 2.05 -1.45 3.80 -3.25 9.75 -9.95 10.15 -23.50 1 -33.60 -5.30 -5.85 -12 -8.75 -20.25 -8.75 -14.90 0 -31.80 5.55 -46.30 15.15 -7.40 4.90 -18.55 16.05 -23.40 23.35 -10.30 15.60 -15.05 31.05 -15 48.85 0.05 6.65 0.25 9.05 1.40 14.40 1.55 7.55 3.45 13.50 6.35 19.75 l2.10 4.60 0.95 -1.50 c0.50 -0.85 0.90 -1.75 0.90 -2z m123.45 -26.25 c3.60 -5.35 6.55 -9.80 6.55 -9.95 0 -0.25 -3.05 -2.45 -18.90 -13.80 l-12.15 -8.65 -1.60 1.75 c-0.90 0.95 -5.45 5.75 -10.20 10.70 l-8.55 9 0.30 2.65 0.35 2.60 3 1.25 c1.65 0.70 5.35 2.20 8.25 3.40 2.90 1.20 8.85 3.70 13.25 5.55 9.30 3.95 12.40 5.20 12.80 5.25 0.15 0 3.25 -4.40 6.90 -9.75z m-52.90 -4.55 c1.10 -1.15 1.15 -1.35 0.40 -2.60 -0.95 -1.70 -2.10 -1.95 -3.40 -0.65 -1.30 1.30 -1.30 2.05 -0.05 3.45 1.30 1.40 1.55 1.40 3.05 -0.20z m11.60 -22.20 c9.10 -9.55 9.70 -10.30 8.95 -11.05 -0.50 -0.45 -3.75 -2.90 -7.35 -5.45 -3.55 -2.55 -6.90 -5.05 -7.35 -5.60 -0.70 -0.80 -0.90 -1.95 -0.90 -5.35 0 -3.80 -0.15 -4.55 -1.25 -6.20 -2.25 -3.25 -5.20 -4.15 -8.10 -2.35 -2.30 1.35 -3.30 3.20 -3.70 6.70 -0.50 4.10 -1.80 5.30 -5.90 5.30 -1.60 0 -3.85 -0.35 -5.05 -0.75 -1.50 -0.55 -2.35 -0.60 -3.05 -0.25 -0.50 0.30 -0.95 0.65 -0.95 0.80 0 0.10 3.90 8.05 8.70 17.60 l8.70 17.35 3.75 -0.25 3.70 -0.25 9.80 -10.25z"/>
  <path d="M200.50 384.45 c-2.05 -0.25 -4.90 -0.80 -6.35 -1.20 -2.60 -0.75 -2.65 -0.80 -2.65 -2.70 l0 -1.95 3.40 -0.90 c4.80 -1.25 21.80 -1.60 27.40 -0.55 6.05 1.15 6.70 1.50 6.70 3.55 0 1.95 -0.60 2.25 -6.25 3.30 -4.05 0.75 -17.60 1.05 -22.25 0.45z"/>
  <path d="M198.25 370.20 c-0.55 -0.15 -2.40 -0.60 -4.15 -1 l-3.15 -0.85 0.15 -1.80 c0.15 -1.75 0.25 -1.80 3.40 -2.75 4.70 -1.40 24.85 -1.50 30.65 -0.15 l3.85 0.90 0 1.95 c0 1.85 -0.10 2 -1.90 2.50 -4.65 1.25 -7.85 1.50 -17.55 1.45 -5.65 -0.05 -10.75 -0.15 -11.30 -0.25z"/>
  <path d="M198.25 356.20 c-0.55 -0.10 -2.40 -0.60 -4.10 -1 -3.10 -0.80 -3.15 -0.85 -3.15 -2.50 0 -2 0.65 -2.40 6.40 -3.50 7.60 -1.45 25.05 -0.75 30.25 1.25 1.10 0.45 1.35 0.85 1.35 2.20 0 1.65 -0.10 1.75 -2.85 2.60 -2.40 0.75 -5.05 0.95 -14.90 1.05 -6.60 0.05 -12.45 0.05 -13 -0.10z"/>
  <path d="M198.25 342.20 c-0.55 -0.10 -2.40 -0.60 -4.10 -1 -3.10 -0.80 -3.15 -0.85 -3.15 -2.50 0 -1.40 0.25 -1.80 1.35 -2.25 7.40 -2.80 28.35 -2.90 35.05 -0.15 1.35 0.55 1.60 0.90 1.60 2.35 0 1.65 -0.10 1.75 -2.85 2.60 -2.40 0.75 -5.05 0.95 -14.90 1.05 -6.60 0.05 -12.45 0.05 -13 -0.10z"/>
  <path d="M315.50 361.65 c0 -1.05 0.50 -4.65 1.10 -8.05 l1.15 -6.15 1.75 0.15 1.75 0.15 1.10 5.25 c0.60 2.90 1.10 6.45 1.15 7.90 l0 2.60 -4 0 -4 0 0 -1.85z"/>
  <path d="M397.50 361.40 c0 -1.20 0.55 -4.75 1.20 -7.90 l1.15 -5.75 1.70 -0.15 1.70 -0.15 1.15 5.65 c0.60 3.10 1.10 6.70 1.10 8.05 l0 2.35 -4 0 -4 0 0 -2.10z"/>
  <path d="M343.75 219.80 c-2.60 -1.15 -3.45 -2.55 -3.65 -6 -0.25 -3.70 0.65 -5.90 2.90 -7.05 1.85 -0.95 6.60 -0.95 8.45 0 2.85 1.45 3.95 6.70 2.15 10.25 -1.50 3.10 -6.20 4.40 -9.85 2.80z"/>
 </g>
 <g fill="#67a7de">
  <path d="M129 308.05 c-4.55 -1 -9.50 -4.90 -11.80 -9.25 -1.40 -2.65 -1.45 -2.70 -4.40 -3.30 -4.15 -0.80 -7.50 -2.65 -10.65 -5.80 -2.95 -2.90 -5.65 -8 -5.65 -10.55 0 -1.45 -0.30 -1.75 -3.10 -3.25 -8.15 -4.35 -12.90 -12.40 -12.90 -22 0 -7.30 2.25 -12.60 7.50 -17.60 7.60 -7.25 18.55 -8.90 28.20 -4.30 3.80 1.80 8.45 6.05 10.40 9.50 0.70 1.25 6.05 10.45 11.90 20.50 13.40 22.95 13.25 22.60 13.25 28 0 3.75 -0.20 4.65 -1.60 7.60 -3.05 6.55 -8.70 10.35 -15.60 10.70 -2.10 0.05 -4.60 -0.05 -5.55 -0.25z"/>
  <path d="M310.75 303.95 c-19.50 -1.60 -38.35 -10.25 -52.80 -24.30 -6.25 -6.05 -12.95 -14.35 -12.95 -15.95 0 -0.55 0.70 -2.10 1.55 -3.50 3.80 -5.90 4.15 -7.95 2.20 -13.45 -1.65 -4.60 -1.60 -5.70 0.50 -8.55 0.95 -1.35 2.20 -3.35 2.80 -4.40 1.10 -2.05 1.10 -3.25 0.15 -10.70 l-0.35 -2.65 3.25 -3.15 c4.30 -4.10 4.90 -5.35 5.30 -11.20 l0.35 -4.85 2.35 -1.50 c1.25 -0.80 3.20 -2.05 4.30 -2.70 2.30 -1.40 4.15 -4.45 5.10 -8.45 0.85 -3.65 1.65 -4.40 6.20 -5.60 4.05 -1.05 6.50 -2.10 7.05 -3 0.15 -0.25 0.50 -0.50 0.80 -0.50 0.25 0 4.50 8.10 9.45 18 8.60 17.20 8.95 18.05 8.70 20.20 -0.45 3.20 0.15 5.55 1.85 7.50 2.95 3.40 7.55 4 11.25 1.50 0.95 -0.65 1.95 -1.20 2.20 -1.20 0.25 0 3.25 1.15 6.60 2.55 3.40 1.40 9.40 3.90 13.40 5.55 4 1.70 8.25 3.45 9.50 3.95 5.60 2.25 9.25 3.90 9.35 4.30 0.05 0.20 -2.75 4.70 -6.25 9.90 l-6.35 9.50 -15 -0.05 c-13.70 -0.05 -15.35 -0.15 -19 -1.15 -13.95 -3.75 -25.85 -13.85 -31.25 -26.45 -2.30 -5.35 -3.35 -9.45 -3.95 -15.55 -0.50 -4.70 -0.90 -5.55 -2.70 -5.55 -1.45 0 -1.90 2.15 -1.35 6.90 1.30 11.70 5.95 21.80 13.75 30 6.75 7.10 15.15 12.25 23.50 14.35 1.95 0.45 3.75 0.95 4.10 1.05 0.45 0.10 0.35 0.75 -0.35 2.30 -1.25 2.70 -1.25 5.10 0 7.65 1.90 3.95 3.65 5.15 8.75 6.05 4.55 0.80 6.85 1.85 8.60 3.90 4.70 5.55 3.95 12.70 -1.85 17.35 -2.95 2.40 -7.45 2.85 -18.75 1.90z"/>
  <path d="M351.60 260.90 c0.25 -1.05 28.45 -43.10 29.35 -43.80 0.60 -0.50 3.05 -0.65 10.55 -0.50 l9.75 0.15 3.25 1.75 c2.50 1.35 3.70 2.40 5.20 4.60 1.85 2.70 2 3.20 2.20 7.10 0.20 3.70 0.05 4.50 -1.05 6.95 -1.50 3.30 -4.45 6.20 -7.70 7.55 -2.05 0.85 -3.90 1 -12.90 1.20 l-10.50 0.20 -1.35 -1.50 c-1.95 -2.20 -4.40 -2.90 -6.65 -1.80 -2.40 1.10 -3.25 2.50 -3.25 5.10 0 1.85 0.30 2.50 1.70 3.90 1.40 1.40 2.10 1.70 3.80 1.70 1.80 0 2.40 -0.30 3.80 -1.75 l1.65 -1.75 10.25 0 10.30 0 0 1.15 c0 1.55 -2.40 5.20 -4.65 7.20 -3.35 2.95 -4.95 3.15 -25.50 3.15 -14.50 0 -18.40 -0.15 -18.25 -0.60z m51.90 -29.85 c0.70 -1.40 0.70 -1.40 -1.55 -2.80 -2.25 -1.45 -2.40 -2.60 -0.45 -3.60 2.05 -1 2.65 -2.15 1.65 -3.25 -1.30 -1.40 -3.35 -1.10 -5.35 0.80 -1.55 1.45 -1.80 1.95 -1.80 4.05 0 2 0.25 2.60 1.70 4.05 2 2 4.90 2.40 5.80 0.75z"/>
  <path d="M239.25 253.90 c-3.35 -7.15 -5.35 -13.10 -7.10 -21.25 -1.15 -5.60 -1.35 -7.60 -1.35 -15.90 0 -5.50 0.25 -11.20 0.60 -13.50 2.25 -13.75 6.70 -25.20 14.40 -36.85 4.85 -7.30 16 -18.45 23.40 -23.35 14.90 -9.90 31.15 -15.10 47.55 -15.25 5 -0.05 6.65 0.15 9.75 1.15 5.05 1.55 8.90 3.95 12.25 7.70 10.35 11.40 8.65 29.70 -3.55 38.90 -1.40 1.10 -2.80 1.95 -3.10 1.95 -0.30 0 -1.85 -0.90 -3.50 -2.05 l-2.95 -2.05 -0.30 -4.20 c-0.20 -3.25 -0.50 -4.65 -1.50 -6.35 -1.85 -3.15 -4.40 -5.20 -7.65 -6.15 -3.50 -1 -6.10 -0.65 -9.55 1.30 -3.05 1.75 -5.35 5.20 -5.90 8.85 -0.35 2.50 -0.05 2.45 -5.35 1.15 -2.85 -0.70 -5.70 -0.05 -7.35 1.70 -0.60 0.65 -2.05 2.60 -3.20 4.35 -2.35 3.55 -3.05 4 -8.10 5.25 -4.60 1.15 -6.80 3.20 -7.95 7.45 -1.30 4.70 -2.35 6.30 -5.40 8 -6.25 3.45 -7.35 5.25 -7.40 11.95 l0 4 -2.85 2.75 c-5.45 5.25 -6 6.75 -4.60 13.70 0.75 3.60 0.50 4.40 -2.50 8.45 -3.30 4.55 -3.45 5.75 -1.55 11.50 1.65 5.05 1.65 5.90 -0.25 8.95 -0.70 1.05 -1.25 2.15 -1.25 2.40 0 0.25 -0.25 0.65 -0.50 0.80 -0.30 0.20 -1.65 -2.05 -3.25 -5.35z"/>
  <path d="M372.85 249.20 c-0.65 -0.70 -0.35 -2.15 0.60 -2.65 1.30 -0.70 2.50 0.65 1.70 1.85 -0.55 0.95 -1.75 1.35 -2.30 0.80z"/>
  <path d="M357.50 236.50 c-5 -2.15 -18.65 -7.85 -24.50 -10.30 -2.90 -1.20 -6.60 -2.70 -8.25 -3.40 -2.35 -0.95 -3.05 -1.50 -3.15 -2.40 -0.05 -0.65 -0.35 -2.30 -0.65 -3.75 l-0.60 -2.60 8.95 -9.35 c4.90 -5.15 9.90 -10.40 11 -11.60 1.25 -1.35 2.35 -2.15 2.80 -2 0.35 0.15 5.95 4.05 12.40 8.65 6.45 4.60 13.95 9.95 16.65 11.85 3 2.15 4.70 3.70 4.50 4.05 -2.30 3.90 -14.90 22.10 -15.35 22.20 -0.30 0 -2 -0.55 -3.80 -1.35z m-7 -18.95 c0.70 -0.50 1.55 -1.80 1.95 -2.85 0.60 -1.80 0.60 -2.20 -0.20 -3.85 -1.45 -3.10 -4.70 -4.15 -7.75 -2.60 -2.95 1.55 -3.80 5.95 -1.65 8.40 2.10 2.35 5.10 2.70 7.65 0.90z"/>
  <path d="M310.70 223.60 c-1.05 -0.75 -2.20 -2.85 -2.20 -4.15 0 -0.70 0.55 -1.90 1.25 -2.65 0.95 -1.05 1.65 -1.30 3.45 -1.30 1.90 0 2.40 0.20 3.25 1.45 1.40 1.95 1.30 3.65 -0.25 5.50 -1 1.20 -1.70 1.55 -3.10 1.55 -1.05 0 -2.10 -0.20 -2.40 -0.40z"/>
  <path d="M298.55 193.65 c-9.85 -19.75 -9.90 -19.90 -7.05 -21.40 1.30 -0.65 1.75 -0.65 4.60 0.25 4.10 1.30 5.55 1.25 7.15 -0.15 1.05 -0.90 1.40 -1.75 1.70 -4.25 0.60 -5 3.50 -7.80 8.05 -7.75 2.95 0.05 5.15 1.20 6.75 3.50 1.10 1.65 1.25 2.40 1.25 6 0 2.25 0.15 4.45 0.30 4.85 0.15 0.45 3.60 3.20 7.65 6.10 4 2.85 7.95 5.75 8.75 6.40 l1.45 1.20 -11.20 11.75 c-10.85 11.40 -11.20 11.70 -12.55 11.25 -1.35 -0.45 -2.35 -0.40 -6.15 0.35 l-1.50 0.30 -9.20 -18.40z"/>
 </g>
 <g fill="#c6362e">
  <path d="M197.25 390.75 c-12.85 -2.35 -18.10 -9 -12.05 -15.05 l2.05 -2.05 -2.10 -2.05 c-2.05 -1.95 -2.15 -2.20 -2.15 -4.90 0 -2.65 0.10 -2.95 2.15 -4.95 l2.10 -2.15 -1.80 -1.70 c-3.60 -3.25 -3.55 -7.50 0.15 -10.65 l1.70 -1.50 -2.05 -2.05 c-2.35 -2.25 -2.95 -4.20 -2.20 -6.95 1.50 -5.45 9.80 -8.65 23.75 -9.10 12.50 -0.45 21.05 0.95 26.35 4.30 5.40 3.45 5.80 8.95 0.90 12.60 l-1.55 1.10 1.50 0.95 c3.90 2.35 4.60 7.45 1.45 10.70 -0.90 0.95 -2 1.70 -2.40 1.70 -0.50 0.05 -0.05 0.65 1.10 1.60 4.45 3.65 4.45 8.60 -0.10 11.95 l-1.50 1.10 1.60 1.05 c2.30 1.55 3.45 4.05 3.20 6.80 -0.20 1.90 -0.60 2.55 -2.55 4.35 -4.50 4.05 -11.70 5.65 -25.25 5.60 -4.90 0 -10.35 -0.35 -12.30 -0.70z m25.10 -8.50 c2 -0.35 4.05 -0.90 4.50 -1.20 0.80 -0.40 0.70 -0.55 -0.60 -1.05 -3.95 -1.55 -9.50 -2.10 -18 -1.90 -8.25 0.25 -15.25 1.35 -15.25 2.45 0 0.60 4.70 1.90 9 2.40 4.80 0.65 15.70 0.25 20.35 -0.70z m-1.35 -13.75 c4.20 -0.80 6.50 -1.50 6.50 -2 0 -0.25 -1.75 -0.85 -3.85 -1.35 -5.65 -1.30 -21.85 -1.30 -27.05 0.05 -2 0.50 -3.70 1.10 -3.85 1.30 -0.20 0.35 3.35 1.45 7 2.20 2.15 0.40 18.75 0.25 21.25 -0.20z m3.75 -14.85 l3 -1 -1.50 -0.60 c-6.65 -2.75 -25.65 -2.75 -32.50 -0.05 l-1.50 0.60 1.25 0.50 c3.85 1.50 7.50 1.85 17.75 1.70 8.95 -0.10 10.95 -0.30 13.50 -1.15z m0 -13.95 c2.85 -0.95 2.95 -1.05 1.85 -1.65 -5.30 -2.90 -25.50 -2.90 -32.85 -0.05 l-1.50 0.60 1.25 0.50 c3.85 1.50 7.50 1.85 17.75 1.70 8.80 -0.10 11 -0.30 13.50 -1.10z"/>
  <path d="M271 386.75 c-3.20 -1.05 -6.90 -4.10 -8.55 -7 -2.90 -5.15 -3 -6.50 -2.85 -31.35 l0.15 -22.65 1.60 -3.35 c1.90 -4.05 4.85 -7.10 8.60 -8.85 2.40 -1.10 3.45 -1.30 7.30 -1.30 3.80 0 4.95 0.25 7.35 1.35 3.45 1.60 6.45 4.60 8.25 8.30 1.05 2.20 1.40 3.70 1.55 7.15 0.20 4.35 0.20 4.40 -1.30 5.95 -1.30 1.30 -1.90 1.50 -4.10 1.50 -2.20 0 -2.80 -0.20 -4.05 -1.45 -1.10 -1.10 -1.45 -1.95 -1.45 -3.40 0 -4.90 -2.40 -8.15 -6 -8.15 -2.80 0 -4.45 0.90 -5.55 3.10 -0.90 1.75 -0.95 3.15 -0.95 23.15 0 22.60 0.05 23.35 2.40 25.45 1.45 1.30 6.25 1.25 7.70 -0.05 1.90 -1.75 2.35 -3.35 2.60 -9.85 l0.25 -6.30 -2.10 0 c-4.95 0 -7.85 -2.10 -7.85 -5.75 0 -1.95 1.65 -4.65 3.30 -5.25 0.70 -0.30 4.95 -0.50 9.50 -0.50 l8.20 0 0 12.15 c0 10.30 -0.15 12.65 -0.95 15.50 -1.45 5.30 -3.85 8.20 -9.05 10.85 -2.85 1.50 -10.45 1.90 -14 0.75z"/>
  <path d="M303.05 385.95 c-1.25 -1.20 -1.55 -1.95 -1.55 -3.60 0 -1.15 2.85 -16.40 6.35 -33.85 6.15 -30.70 6.40 -31.80 7.80 -33.10 1.20 -1.15 1.90 -1.40 3.95 -1.40 2.10 0 2.70 0.25 3.80 1.45 1.25 1.30 1.85 3.90 7.75 33.35 3.50 17.55 6.35 32.75 6.35 33.70 -0.10 5.20 -7.55 6.95 -10.10 2.35 -0.35 -0.60 -1.10 -3.35 -1.65 -6.10 l-1.05 -5 -5.20 0 -5.20 0 -1.10 5.50 c-1 4.75 -1.35 5.70 -2.70 6.90 -2.20 2 -5.35 1.90 -7.45 -0.20z m18.95 -24.90 c0 -1.10 -1.85 -10.45 -2.30 -11.55 -0.30 -0.65 -2.60 9.45 -2.65 11.65 -0.05 0.70 0.40 0.85 2.45 0.85 2.10 0 2.50 -0.15 2.50 -0.95z"/>
  <path d="M386.05 386.80 c-1.65 -0.90 -2.50 -2.65 -2.50 -5.05 0 -1.10 2.85 -16.15 6.35 -33.45 7.30 -35.85 6.75 -34.30 11.50 -34.30 2.10 0 2.75 0.25 3.95 1.40 1.35 1.35 1.70 2.90 7.80 33.40 3.50 17.55 6.40 32.80 6.35 33.80 0 2.70 -2.35 4.90 -5.20 4.90 -2.25 0 -3.95 -0.90 -4.90 -2.65 -0.35 -0.60 -1.10 -3.35 -1.65 -6.10 l-1.05 -5 -5.20 0 -5.20 0 -1.10 5.50 c-1 4.75 -1.35 5.70 -2.70 6.90 -1.70 1.50 -4.40 1.80 -6.45 0.65z m17.90 -26.15 c-0.05 -2.30 -2.30 -11.95 -2.60 -11.15 -0.35 1 -2.35 11.10 -2.35 11.90 0 0.40 0.90 0.60 2.50 0.60 2.40 0 2.50 -0.05 2.45 -1.35z"/>
  <path d="M357 385.10 c-1.95 -2 -2.05 -3.40 -1.85 -33.85 0.10 -15.85 0 -26.25 -0.30 -26.60 -0.35 -0.45 -2.15 -0.65 -5.80 -0.65 -5.20 0 -5.40 -0.05 -6.65 -1.40 -0.75 -0.75 -1.50 -1.95 -1.65 -2.70 -0.50 -1.90 0.60 -4.70 2.25 -5.90 1.35 -0.95 2.15 -1 17.60 -1 15.25 0 16.25 0.05 17.80 1 1.65 1 2.60 2.70 2.60 4.60 0 1.55 -1.50 4.35 -2.70 5 -0.55 0.30 -3.40 0.65 -6.30 0.75 l-5.25 0.15 -0.25 29.55 -0.25 29.55 -1.65 1.45 c-2.30 2.05 -5.55 2.05 -7.60 0.05z"/>
 </g>
 <g fill="#afafaf">
  <path d="M174.35 321.45 c-1.05 -0.25 -2.40 -0.70 -3 -1.05 -0.60 -0.35 -1.35 -0.65 -1.70 -0.70 -0.35 -0.05 -1.60 -0.85 -2.85 -1.70 -6.45 -4.65 -9.90 -13.45 -8.35 -21.10 1.30 -6.10 5.80 -12.20 10.95 -14.85 4.80 -2.45 6.15 -2.55 40.40 -2.55 20.95 0 33.05 0.20 34.95 0.55 6.65 1.20 12.15 5.35 15.10 11.35 1.85 3.70 1.90 3.95 1.90 9.30 0 5.20 -0.10 5.75 -1.60 8.90 -1.90 4.05 -5.20 7.75 -8.55 9.55 -5.25 2.85 -5.30 2.85 -41.85 2.80 -18.40 -0.05 -34.35 -0.25 -35.40 -0.50z"/>
 </g>
</svg>